<?xml version="1.0" encoding="utf-8"?>
<!-- Generator: Adobe Illustrator 22.1.0, SVG Export Plug-In . SVG Version: 6.00 Build 0)  -->
<svg version="1.1" id="Layer_1" xmlns="http://www.w3.org/2000/svg" xmlns:xlink="http://www.w3.org/1999/xlink" x="0px" y="0px"
	 viewBox="0 0 474 302" style="enable-background:new 0 0 474 302;" xml:space="preserve">
<style type="text/css">
	.st0{fill:#9E8B7B;}
	.st1{fill:#B9654E;stroke:#636363;stroke-width:0.2;stroke-miterlimit:10;}
	.st2{fill:#FDFBEF;stroke:#636363;stroke-width:0.2;stroke-miterlimit:10;}
	.st3{fill:#FFFFFF;stroke:#636363;stroke-width:0.2;stroke-miterlimit:10;}
	.st4{fill:#2A5750;stroke:#636363;stroke-width:0.2;stroke-miterlimit:10;}
	.st5{fill:#418477;stroke:#636363;stroke-width:0.2;stroke-miterlimit:10;}
	.st6{fill:#B9654E;}
	.st7{fill:#B56654;stroke:#636363;stroke-width:0.2;stroke-miterlimit:10;}
	.st8{fill:#F49782;}
</style>
<path class="st0" d="M5.7,121l132.3,4.3v-12c0,0-2-6.7,12.5-5.9c0,0,16.3-2.8,16,4.5l0,11l162.7-3.8v-8.5c0,0-0.8-3.8,6-3.8
	c0,0,12.5-2,12.8,2.3l1.3,6.7c0,0-0.3,3,10,1.3l73.3-0.3v-7.5c0,0,0.8-3.7,8-3c0,0,2.5-0.9,2.8,3.2v7.3l30.7,0.5v5.3l-29,2.5
	L444.7,240h-12V127.5c0,0,0.8-2-7.5-2l-68.8,1.5c0,0-5.7,0.7-3.8,11l3.7,41.8l7.7,57.3l-20,0.5L333.2,134c0,0,1.7-4.8-8.2-3.2
	l-156.7,8.6l10,155.5H143l-3.5-142.8c0,0,1.3-10.7-12.3-10.5L1,144L5.7,121z"/>
<path class="st1" d="M234.6,19.5c0,0-6.6,7.4-4.3,10.6c0.2,0.3,0.5,0.6,0.9,0.8c4.5,2.5,1,0,1,0l4.4,7.5c0,0,2.6,7.4,0,9.5
	c0,0-6.3,9.9-1.4,13.7l13.1-4.1l34.1,1.9c0,0-7.3-6.8-7.6-12c0,0-2.1-3-0.8-6.8c0,0,4.1-7.4-2.1-11.3c0,0-3.5-4.8-3.5-6
	c0,0-0.8-6.4-2.1-6.4c0,0-3.7-7-10.2-3.5c0,0-4.5-6-15.1-1C241,12.4,235.4,14,234.6,19.5z"/>
<polygon class="st2" points="251.5,234.8 257.3,276.3 266,276.3 268.3,230.3 "/>
<polygon class="st2" points="274,235 276.5,272.3 283.8,272.3 290.3,231.5 "/>
<path class="st3" d="M236.9,113.5l-52.8,114.9c0,0,21,19,52.8,12.5c0,0,6.3-4.5,14.5-0.3c0,0,11,1.3,16.8-1.3c0,0,14.2,1.7,19.4,0
	c0.7-0.2,1.3-0.6,1.6-1c2.5-3.3,2.3-9.5,6-9.5c0,0,6,0.8,6.5-3c0,0-6.7-45.9-13.9-81.6c-1.3-6.6-2.7-12.9-4.1-18.5
	c-0.6-2.7-1.3-5.2-1.9-7.5L236.9,113.5z"/>
<path class="st2" d="M222.7,166.2c-5.2,5.9-10.6-5.4-10.6-5.4c-2.7-5.8,5.6-20.1,6.8-21.9c0.1-0.1,0.1-0.3,0.2-0.4l11.1-30.8
	c0.1-0.3,0.1-0.6,0.1-0.9l0,0c0-1.2,0.8-2.2,2-2.5l4.8-0.9c1-0.2,2,0.2,2.6,1.1l3.4,5.3c0.4,0.6,0.5,1.3,0.3,2
	c-1.3,5.3-3.5,7.5-4.4,8.3c-0.3,0.2-0.5,0.5-0.7,0.9l-12.8,27.2c-0.2,0.4-0.3,0.8-0.2,1.2C225.4,149.4,225.4,163.2,222.7,166.2z"/>
<path class="st2" d="M290.4,94.8c0,0,3.7,29.5,5.5,31.9c0.8,1.1,1.7,1.6,2.4,2.9c1.4,2.5,2.8,6.8,0.9,9.5c-1,1.4-2.7,1.5-4.1,0.6
	c-1.6-1-2.4-2.9-2.9-4.6c-0.4-1.4-0.6-2.9-0.7-4.3c-0.1-1.4,0-2.9-0.4-4.3c-0.6-1.8-1.5-3.5-2.1-5.3c-1.5-4.1-2.7-8.3-3.9-12.5
	c-0.2-0.7-3.2-10.6-2.7-10.8C282.4,97.9,290.4,94.8,290.4,94.8z"/>
<path class="st2" d="M247.3,57.2c0,0,9-7.3,10.8-13l5.8-2.8l13.1,18L247.3,57.2z"/>
<path class="st4" d="M255.6,75.2c-5.1,1.8-8-1.1-8-1.1c2.6,4.6-3.8,28.7-5.6,35c0.6,0.6,1,1.3,1.2,2.2l-1.2,4.7
	c0,0,9.5,5.7,12.5,5.7l1.6-0.3C262.1,101.1,255.6,75.2,255.6,75.2z"/>
<path class="st5" d="M263.3,85.5c-2-17.9,6-17.8,6-17.8l16-4c1.1-0.3,3.6,2.9,6.1,7.2l-3-10.2c0,0-0.8-4.2-6.3-3.8
	c0,0-22.5-0.5-34.3-2.3c0,0-13.7,0.5-13.8,13c0,0-1.8,36.3-3.5,37.3v2.5c0,0,8.4-1.4,11.8,1.8c1.8-6.3,8.2-30.3,5.6-35
	c0,0,2.9,2.9,8,1.1c0,0,6.5,25.9,0.6,46.1l5.2-0.9c0,0,0.2,0.1,0.5,0.3l-0.1-0.6C266.2,115.4,263.3,85.5,263.3,85.5z"/>
<path class="st4" d="M269,123.3c2.2,0,3.3-2,8.7-1.5c0,0,3.3-2.8,4-3.5l3.2-19.5l12.2-8.7l-5.7-19.3c-2.5-4.3-5-7.6-6.1-7.2l-16,4
	c0,0-8-0.1-6,17.8c0,0,2.9,29.9-1.3,34.7l0.1,0.6c1.2,0.6,4.1,2,6,2.4C268.4,123.2,268.7,123.3,269,123.3z"/>
<path class="st6" d="M232.7,31.7c0,0,20.8,6.1,22-14.5"/>
<path class="st7" d="M256.6,17.2c0,0-2.9,7.4,3.1,14.4c0,0,5.3,4.1,4.1,9.8c0,0-1.3,12.2,4,16.4c1.4,1.6,2.7,3.3,4,5
	c1.8,2.5,5.1,6.5,4.2,9.8c1.9-3.6,3.8-8,3.9-12.1c0.2-4.8-2.8-7.5-4.5-11.7c-1.2-3.1,0.3-5.5,0.6-8.6c0.3-2.8,0.3-6.3-1.6-8.6
	c0,0-5-7.8-5.4-11.3c0,0-3.4-12.2-10.9-7.1l-2.1,0.9L256.6,17.2z"/>
<path class="st8" d="M258,13.3l-2.4-0.8c0,0-2.5,2-0.9,4.6h1.9C256.6,17.2,255.6,14,258,13.3z"/>
</svg>
